<svg width="32" height="20" viewBox="0 0 32 20" fill="none" xmlns="http://www.w3.org/2000/svg">
<path d="M31.9807 4.42141C31.9487 1.97792 29.9575 0 27.5144 0C25.3318 0 23.511 1.57913 23.1245 3.65834C22.3572 3.99896 21.0244 4.54366 20.2302 4.67626C19.2727 4.83597 18.1155 4.88404 16.7908 4.81872C14.2605 4.69401 11.7344 3.86735 9.48535 2.42748C6.65527 0.615927 4.24487 0.192 1.66968 1.05292C0.670898 1.38688 0 2.32963 0 3.3993C0 3.74584 0.187744 4.06477 0.489502 4.23065C0.834472 4.41993 1.15698 4.58359 1.46899 4.74158C3.15918 5.59806 4.09033 6.0698 4.70727 8.66956C5.16821 10.6108 5.97461 12.2379 7.10449 13.5055C7.58398 14.0436 8.12304 14.5183 8.71655 14.9269H21.5471C23.4853 13.4666 24.6719 11.2513 24.998 8.45833C25.1938 6.7816 25.0293 5.31979 24.9145 4.59936C24.9194 4.56067 24.9226 4.52148 24.9226 4.48131C24.9226 3.054 26.0852 1.89288 27.5144 1.89288C28.9433 1.89288 30.1062 3.054 30.1062 4.48131C30.1062 4.52641 30.1094 4.57151 30.1157 4.61612C30.1169 4.62549 30.2204 5.56404 29.6423 6.23765C29.1684 6.78974 28.3313 7.06973 27.1543 7.06973C26.6365 7.06973 26.2168 7.49341 26.2168 8.01617C26.2168 8.53868 26.6365 8.96261 27.1543 8.96261C28.8996 8.96261 30.2136 8.46277 31.0593 7.47689C32.0967 6.26821 32.0205 4.79876 31.9807 4.42141Z" fill="#FF7010"/>
<path d="M8.72168 16.8193C8.66943 17.0232 8.64185 17.2369 8.64185 17.4567V19.0533C8.64185 19.5758 9.06152 19.9998 9.5791 19.9998H20.7441C21.2617 19.9998 21.6816 19.5758 21.6816 19.0533V17.4567C21.6816 17.2369 21.6538 17.0232 21.6016 16.8193H8.72168Z" fill="#FF7010"/>
</svg>
