<svg width="89" height="40" viewBox="0 0 89 40" fill="none" xmlns="http://www.w3.org/2000/svg">
<rect width="89" height="40" rx="4" fill="#FF7010"/>
<g clip-path="url(#clip0_22351_1226)">
<path d="M23.7813 23.5001H36.4846C36.7991 23.5001 37.0751 23.293 37.1602 22.9922L39.9729 13.1921C40.0333 12.9808 39.9919 12.7539 39.8588 12.5783C39.7255 12.4033 39.5183 12.3 39.2971 12.3H22.158L21.6554 10.0483C21.584 9.72768 21.2983 9.5 20.9688 9.5H16.7031C16.3146 9.5 16 9.81317 16 10.2C16 10.587 16.3146 10.9 16.7031 10.9H20.4044L22.9435 22.2749C22.1965 22.5983 21.6719 23.3386 21.6719 24.2001C21.6719 25.358 22.6182 26.3 23.7813 26.3H36.4846C36.8733 26.3 37.1877 25.987 37.1877 25.6C37.1877 25.2132 36.8733 24.9 36.4846 24.9H23.7813C23.394 24.9 23.0781 24.5863 23.0781 24.2001C23.0781 23.8138 23.394 23.5001 23.7813 23.5001Z" fill="white"/>
<path d="M23.0781 28.3998C23.0781 29.5579 24.0244 30.4998 25.1877 30.4998C26.3508 30.4998 27.2971 29.5579 27.2971 28.3998C27.2971 27.2419 26.3508 26.2998 25.1877 26.2998C24.0244 26.2998 23.0781 27.2419 23.0781 28.3998Z" fill="white"/>
<path d="M32.9689 28.3998C32.9689 29.5579 33.9152 30.4998 35.0782 30.4998C36.2415 30.4998 37.1876 29.5579 37.1876 28.3998C37.1876 27.2419 36.2415 26.2998 35.0782 26.2998C33.9152 26.2998 32.9689 27.2419 32.9689 28.3998Z" fill="white"/>
</g>
<path d="M53.0625 26.2656C55.5938 26.2656 57.0469 24.125 57.0469 20.3828C57.0469 16.6484 55.5703 14.4609 53.0625 14.4609C50.5391 14.4609 49.0625 16.6406 49.0625 20.3594C49.0625 24.1094 50.5234 26.2656 53.0625 26.2656ZM53.0625 25.0391C51.3984 25.0391 50.4766 23.375 50.4766 20.3594C50.4766 17.3828 51.4141 15.6953 53.0625 15.6953C54.7109 15.6953 55.6328 17.3672 55.6328 20.3594C55.6328 23.3828 54.7266 25.0391 53.0625 25.0391ZM66.4609 15.9766H68.2578C69.875 15.9766 70.6562 16.8359 70.6562 18.1875C70.6562 19.5469 69.8672 20.4141 68.2578 20.4141H66.4609V15.9766ZM69.7031 24.2031V23.1406H66.4609V21.6328H68.6094C70.7266 21.6328 72.1016 20.1719 72.1016 18.1875C72.1016 16.2109 70.7422 14.7266 68.625 14.7266H65.0547V20.4141H63.4922V21.6328H65.0547V23.1406H63.4922V24.2031H65.0547V26H66.4609V24.2031H69.7031Z" fill="white"/>
<defs>
<clipPath id="clip0_22351_1226">
<rect width="24" height="24" fill="white" transform="translate(16 8)"/>
</clipPath>
</defs>
</svg>
